G04 #@! TF.GenerationSoftware,KiCad,Pcbnew,5.0.1-33cea8e~68~ubuntu16.04.1*
G04 #@! TF.CreationDate,2019-04-13T16:09:11-04:00*
G04 #@! TF.ProjectId,fieldeffector,6669656C646566666563746F722E6B69,rev?*
G04 #@! TF.SameCoordinates,Original*
G04 #@! TF.FileFunction,Copper,L2,Bot,Signal*
G04 #@! TF.FilePolarity,Positive*
%FSLAX46Y46*%
G04 Gerber Fmt 4.6, Leading zero omitted, Abs format (unit mm)*
G04 Created by KiCad (PCBNEW 5.0.1-33cea8e~68~ubuntu16.04.1) date Sat 13 Apr 2019 16:09:11 EDT*
%MOMM*%
%LPD*%
G01*
G04 APERTURE LIST*
G04 #@! TA.AperFunction,ComponentPad*
%ADD10O,2.999740X5.001260*%
G04 #@! TD*
G04 #@! TA.AperFunction,ComponentPad*
%ADD11O,1.700000X1.700000*%
G04 #@! TD*
G04 #@! TA.AperFunction,ComponentPad*
%ADD12R,1.700000X1.700000*%
G04 #@! TD*
G04 #@! TA.AperFunction,ViaPad*
%ADD13C,0.800000*%
G04 #@! TD*
G04 #@! TA.AperFunction,Conductor*
%ADD14C,0.254000*%
G04 #@! TD*
G04 APERTURE END LIST*
D10*
G04 #@! TO.P,J3,2*
G04 #@! TO.N,Net-(D2-Pad2)*
X107000000Y-93265000D03*
G04 #@! TO.P,J3,1*
G04 #@! TO.N,+48V*
X103037600Y-93265000D03*
G04 #@! TD*
G04 #@! TO.P,J2,2*
G04 #@! TO.N,Net-(D3-Pad2)*
X123180000Y-93265000D03*
G04 #@! TO.P,J2,1*
G04 #@! TO.N,+48V*
X119217600Y-93265000D03*
G04 #@! TD*
G04 #@! TO.P,J5,2*
G04 #@! TO.N,+48V*
X74637600Y-106265000D03*
G04 #@! TO.P,J5,1*
G04 #@! TO.N,GND*
X78600000Y-106265000D03*
G04 #@! TD*
D11*
G04 #@! TO.P,J8,2*
G04 #@! TO.N,Net-(J8-Pad2)*
X109540000Y-123290000D03*
D12*
G04 #@! TO.P,J8,1*
G04 #@! TO.N,GND*
X112080000Y-123290000D03*
G04 #@! TD*
D11*
G04 #@! TO.P,J10,2*
G04 #@! TO.N,Net-(J10-Pad2)*
X141900000Y-123290000D03*
D12*
G04 #@! TO.P,J10,1*
G04 #@! TO.N,GND*
X144440000Y-123290000D03*
G04 #@! TD*
D11*
G04 #@! TO.P,J9,2*
G04 #@! TO.N,Net-(J9-Pad2)*
X125705000Y-123290000D03*
D12*
G04 #@! TO.P,J9,1*
G04 #@! TO.N,GND*
X128245000Y-123290000D03*
G04 #@! TD*
D11*
G04 #@! TO.P,J7,2*
G04 #@! TO.N,Net-(J7-Pad2)*
X93360000Y-123290000D03*
D12*
G04 #@! TO.P,J7,1*
G04 #@! TO.N,GND*
X95900000Y-123290000D03*
G04 #@! TD*
D11*
G04 #@! TO.P,J6,2*
G04 #@! TO.N,+5V*
X82900000Y-124325000D03*
D12*
G04 #@! TO.P,J6,1*
G04 #@! TO.N,GND*
X82900000Y-126865000D03*
G04 #@! TD*
D10*
G04 #@! TO.P,J4,2*
G04 #@! TO.N,Net-(D1-Pad2)*
X90820000Y-93265000D03*
G04 #@! TO.P,J4,1*
G04 #@! TO.N,+48V*
X86857600Y-93265000D03*
G04 #@! TD*
G04 #@! TO.P,J1,2*
G04 #@! TO.N,Net-(D4-Pad2)*
X139360000Y-93265000D03*
G04 #@! TO.P,J1,1*
G04 #@! TO.N,+48V*
X135397600Y-93265000D03*
G04 #@! TD*
D13*
G04 #@! TO.N,+5V*
X91650000Y-125815000D03*
X107900000Y-125815000D03*
X124150000Y-125815000D03*
X140400000Y-125815000D03*
G04 #@! TD*
D14*
G04 #@! TO.N,+5V*
G36*
X148533130Y-120460752D02*
X148815545Y-120649455D01*
X149004248Y-120931870D01*
X149073000Y-121277509D01*
X149073000Y-128952491D01*
X149004248Y-129298130D01*
X148815545Y-129580545D01*
X148533130Y-129769248D01*
X148187491Y-129838000D01*
X80012509Y-129838000D01*
X79666870Y-129769248D01*
X79384455Y-129580545D01*
X79195752Y-129298130D01*
X79127000Y-128952491D01*
X79127000Y-126015000D01*
X81402560Y-126015000D01*
X81402560Y-127715000D01*
X81451843Y-127962765D01*
X81592191Y-128172809D01*
X81802235Y-128313157D01*
X82050000Y-128362440D01*
X83750000Y-128362440D01*
X83997765Y-128313157D01*
X84207809Y-128172809D01*
X84348157Y-127962765D01*
X84397440Y-127715000D01*
X84397440Y-126015000D01*
X84348157Y-125767235D01*
X84207809Y-125557191D01*
X83997765Y-125416843D01*
X83894292Y-125396261D01*
X84171645Y-125091924D01*
X84341476Y-124681890D01*
X84220155Y-124452000D01*
X83027000Y-124452000D01*
X83027000Y-124472000D01*
X82773000Y-124472000D01*
X82773000Y-124452000D01*
X81579845Y-124452000D01*
X81458524Y-124681890D01*
X81628355Y-125091924D01*
X81905708Y-125396261D01*
X81802235Y-125416843D01*
X81592191Y-125557191D01*
X81451843Y-125767235D01*
X81402560Y-126015000D01*
X79127000Y-126015000D01*
X79127000Y-123968110D01*
X81458524Y-123968110D01*
X81579845Y-124198000D01*
X82773000Y-124198000D01*
X82773000Y-123004181D01*
X83027000Y-123004181D01*
X83027000Y-124198000D01*
X84220155Y-124198000D01*
X84341476Y-123968110D01*
X84171645Y-123558076D01*
X83927339Y-123290000D01*
X91845908Y-123290000D01*
X91961161Y-123869418D01*
X92289375Y-124360625D01*
X92780582Y-124688839D01*
X93213744Y-124775000D01*
X93506256Y-124775000D01*
X93939418Y-124688839D01*
X94430625Y-124360625D01*
X94442816Y-124342381D01*
X94451843Y-124387765D01*
X94592191Y-124597809D01*
X94802235Y-124738157D01*
X95050000Y-124787440D01*
X96750000Y-124787440D01*
X96997765Y-124738157D01*
X97207809Y-124597809D01*
X97348157Y-124387765D01*
X97397440Y-124140000D01*
X97397440Y-123290000D01*
X108025908Y-123290000D01*
X108141161Y-123869418D01*
X108469375Y-124360625D01*
X108960582Y-124688839D01*
X109393744Y-124775000D01*
X109686256Y-124775000D01*
X110119418Y-124688839D01*
X110610625Y-124360625D01*
X110622816Y-124342381D01*
X110631843Y-124387765D01*
X110772191Y-124597809D01*
X110982235Y-124738157D01*
X111230000Y-124787440D01*
X112930000Y-124787440D01*
X113177765Y-124738157D01*
X113387809Y-124597809D01*
X113528157Y-124387765D01*
X113577440Y-124140000D01*
X113577440Y-123290000D01*
X124190908Y-123290000D01*
X124306161Y-123869418D01*
X124634375Y-124360625D01*
X125125582Y-124688839D01*
X125558744Y-124775000D01*
X125851256Y-124775000D01*
X126284418Y-124688839D01*
X126775625Y-124360625D01*
X126787816Y-124342381D01*
X126796843Y-124387765D01*
X126937191Y-124597809D01*
X127147235Y-124738157D01*
X127395000Y-124787440D01*
X129095000Y-124787440D01*
X129342765Y-124738157D01*
X129552809Y-124597809D01*
X129693157Y-124387765D01*
X129742440Y-124140000D01*
X129742440Y-123290000D01*
X140385908Y-123290000D01*
X140501161Y-123869418D01*
X140829375Y-124360625D01*
X141320582Y-124688839D01*
X141753744Y-124775000D01*
X142046256Y-124775000D01*
X142479418Y-124688839D01*
X142970625Y-124360625D01*
X142982816Y-124342381D01*
X142991843Y-124387765D01*
X143132191Y-124597809D01*
X143342235Y-124738157D01*
X143590000Y-124787440D01*
X145290000Y-124787440D01*
X145537765Y-124738157D01*
X145747809Y-124597809D01*
X145888157Y-124387765D01*
X145937440Y-124140000D01*
X145937440Y-122440000D01*
X145888157Y-122192235D01*
X145747809Y-121982191D01*
X145537765Y-121841843D01*
X145290000Y-121792560D01*
X143590000Y-121792560D01*
X143342235Y-121841843D01*
X143132191Y-121982191D01*
X142991843Y-122192235D01*
X142982816Y-122237619D01*
X142970625Y-122219375D01*
X142479418Y-121891161D01*
X142046256Y-121805000D01*
X141753744Y-121805000D01*
X141320582Y-121891161D01*
X140829375Y-122219375D01*
X140501161Y-122710582D01*
X140385908Y-123290000D01*
X129742440Y-123290000D01*
X129742440Y-122440000D01*
X129693157Y-122192235D01*
X129552809Y-121982191D01*
X129342765Y-121841843D01*
X129095000Y-121792560D01*
X127395000Y-121792560D01*
X127147235Y-121841843D01*
X126937191Y-121982191D01*
X126796843Y-122192235D01*
X126787816Y-122237619D01*
X126775625Y-122219375D01*
X126284418Y-121891161D01*
X125851256Y-121805000D01*
X125558744Y-121805000D01*
X125125582Y-121891161D01*
X124634375Y-122219375D01*
X124306161Y-122710582D01*
X124190908Y-123290000D01*
X113577440Y-123290000D01*
X113577440Y-122440000D01*
X113528157Y-122192235D01*
X113387809Y-121982191D01*
X113177765Y-121841843D01*
X112930000Y-121792560D01*
X111230000Y-121792560D01*
X110982235Y-121841843D01*
X110772191Y-121982191D01*
X110631843Y-122192235D01*
X110622816Y-122237619D01*
X110610625Y-122219375D01*
X110119418Y-121891161D01*
X109686256Y-121805000D01*
X109393744Y-121805000D01*
X108960582Y-121891161D01*
X108469375Y-122219375D01*
X108141161Y-122710582D01*
X108025908Y-123290000D01*
X97397440Y-123290000D01*
X97397440Y-122440000D01*
X97348157Y-122192235D01*
X97207809Y-121982191D01*
X96997765Y-121841843D01*
X96750000Y-121792560D01*
X95050000Y-121792560D01*
X94802235Y-121841843D01*
X94592191Y-121982191D01*
X94451843Y-122192235D01*
X94442816Y-122237619D01*
X94430625Y-122219375D01*
X93939418Y-121891161D01*
X93506256Y-121805000D01*
X93213744Y-121805000D01*
X92780582Y-121891161D01*
X92289375Y-122219375D01*
X91961161Y-122710582D01*
X91845908Y-123290000D01*
X83927339Y-123290000D01*
X83781358Y-123129817D01*
X83256892Y-122883514D01*
X83027000Y-123004181D01*
X82773000Y-123004181D01*
X82543108Y-122883514D01*
X82018642Y-123129817D01*
X81628355Y-123558076D01*
X81458524Y-123968110D01*
X79127000Y-123968110D01*
X79127000Y-121277509D01*
X79195752Y-120931870D01*
X79384455Y-120649455D01*
X79666870Y-120460752D01*
X80012509Y-120392000D01*
X148187491Y-120392000D01*
X148533130Y-120460752D01*
X148533130Y-120460752D01*
G37*
X148533130Y-120460752D02*
X148815545Y-120649455D01*
X149004248Y-120931870D01*
X149073000Y-121277509D01*
X149073000Y-128952491D01*
X149004248Y-129298130D01*
X148815545Y-129580545D01*
X148533130Y-129769248D01*
X148187491Y-129838000D01*
X80012509Y-129838000D01*
X79666870Y-129769248D01*
X79384455Y-129580545D01*
X79195752Y-129298130D01*
X79127000Y-128952491D01*
X79127000Y-126015000D01*
X81402560Y-126015000D01*
X81402560Y-127715000D01*
X81451843Y-127962765D01*
X81592191Y-128172809D01*
X81802235Y-128313157D01*
X82050000Y-128362440D01*
X83750000Y-128362440D01*
X83997765Y-128313157D01*
X84207809Y-128172809D01*
X84348157Y-127962765D01*
X84397440Y-127715000D01*
X84397440Y-126015000D01*
X84348157Y-125767235D01*
X84207809Y-125557191D01*
X83997765Y-125416843D01*
X83894292Y-125396261D01*
X84171645Y-125091924D01*
X84341476Y-124681890D01*
X84220155Y-124452000D01*
X83027000Y-124452000D01*
X83027000Y-124472000D01*
X82773000Y-124472000D01*
X82773000Y-124452000D01*
X81579845Y-124452000D01*
X81458524Y-124681890D01*
X81628355Y-125091924D01*
X81905708Y-125396261D01*
X81802235Y-125416843D01*
X81592191Y-125557191D01*
X81451843Y-125767235D01*
X81402560Y-126015000D01*
X79127000Y-126015000D01*
X79127000Y-123968110D01*
X81458524Y-123968110D01*
X81579845Y-124198000D01*
X82773000Y-124198000D01*
X82773000Y-123004181D01*
X83027000Y-123004181D01*
X83027000Y-124198000D01*
X84220155Y-124198000D01*
X84341476Y-123968110D01*
X84171645Y-123558076D01*
X83927339Y-123290000D01*
X91845908Y-123290000D01*
X91961161Y-123869418D01*
X92289375Y-124360625D01*
X92780582Y-124688839D01*
X93213744Y-124775000D01*
X93506256Y-124775000D01*
X93939418Y-124688839D01*
X94430625Y-124360625D01*
X94442816Y-124342381D01*
X94451843Y-124387765D01*
X94592191Y-124597809D01*
X94802235Y-124738157D01*
X95050000Y-124787440D01*
X96750000Y-124787440D01*
X96997765Y-124738157D01*
X97207809Y-124597809D01*
X97348157Y-124387765D01*
X97397440Y-124140000D01*
X97397440Y-123290000D01*
X108025908Y-123290000D01*
X108141161Y-123869418D01*
X108469375Y-124360625D01*
X108960582Y-124688839D01*
X109393744Y-124775000D01*
X109686256Y-124775000D01*
X110119418Y-124688839D01*
X110610625Y-124360625D01*
X110622816Y-124342381D01*
X110631843Y-124387765D01*
X110772191Y-124597809D01*
X110982235Y-124738157D01*
X111230000Y-124787440D01*
X112930000Y-124787440D01*
X113177765Y-124738157D01*
X113387809Y-124597809D01*
X113528157Y-124387765D01*
X113577440Y-124140000D01*
X113577440Y-123290000D01*
X124190908Y-123290000D01*
X124306161Y-123869418D01*
X124634375Y-124360625D01*
X125125582Y-124688839D01*
X125558744Y-124775000D01*
X125851256Y-124775000D01*
X126284418Y-124688839D01*
X126775625Y-124360625D01*
X126787816Y-124342381D01*
X126796843Y-124387765D01*
X126937191Y-124597809D01*
X127147235Y-124738157D01*
X127395000Y-124787440D01*
X129095000Y-124787440D01*
X129342765Y-124738157D01*
X129552809Y-124597809D01*
X129693157Y-124387765D01*
X129742440Y-124140000D01*
X129742440Y-123290000D01*
X140385908Y-123290000D01*
X140501161Y-123869418D01*
X140829375Y-124360625D01*
X141320582Y-124688839D01*
X141753744Y-124775000D01*
X142046256Y-124775000D01*
X142479418Y-124688839D01*
X142970625Y-124360625D01*
X142982816Y-124342381D01*
X142991843Y-124387765D01*
X143132191Y-124597809D01*
X143342235Y-124738157D01*
X143590000Y-124787440D01*
X145290000Y-124787440D01*
X145537765Y-124738157D01*
X145747809Y-124597809D01*
X145888157Y-124387765D01*
X145937440Y-124140000D01*
X145937440Y-122440000D01*
X145888157Y-122192235D01*
X145747809Y-121982191D01*
X145537765Y-121841843D01*
X145290000Y-121792560D01*
X143590000Y-121792560D01*
X143342235Y-121841843D01*
X143132191Y-121982191D01*
X142991843Y-122192235D01*
X142982816Y-122237619D01*
X142970625Y-122219375D01*
X142479418Y-121891161D01*
X142046256Y-121805000D01*
X141753744Y-121805000D01*
X141320582Y-121891161D01*
X140829375Y-122219375D01*
X140501161Y-122710582D01*
X140385908Y-123290000D01*
X129742440Y-123290000D01*
X129742440Y-122440000D01*
X129693157Y-122192235D01*
X129552809Y-121982191D01*
X129342765Y-121841843D01*
X129095000Y-121792560D01*
X127395000Y-121792560D01*
X127147235Y-121841843D01*
X126937191Y-121982191D01*
X126796843Y-122192235D01*
X126787816Y-122237619D01*
X126775625Y-122219375D01*
X126284418Y-121891161D01*
X125851256Y-121805000D01*
X125558744Y-121805000D01*
X125125582Y-121891161D01*
X124634375Y-122219375D01*
X124306161Y-122710582D01*
X124190908Y-123290000D01*
X113577440Y-123290000D01*
X113577440Y-122440000D01*
X113528157Y-122192235D01*
X113387809Y-121982191D01*
X113177765Y-121841843D01*
X112930000Y-121792560D01*
X111230000Y-121792560D01*
X110982235Y-121841843D01*
X110772191Y-121982191D01*
X110631843Y-122192235D01*
X110622816Y-122237619D01*
X110610625Y-122219375D01*
X110119418Y-121891161D01*
X109686256Y-121805000D01*
X109393744Y-121805000D01*
X108960582Y-121891161D01*
X108469375Y-122219375D01*
X108141161Y-122710582D01*
X108025908Y-123290000D01*
X97397440Y-123290000D01*
X97397440Y-122440000D01*
X97348157Y-122192235D01*
X97207809Y-121982191D01*
X96997765Y-121841843D01*
X96750000Y-121792560D01*
X95050000Y-121792560D01*
X94802235Y-121841843D01*
X94592191Y-121982191D01*
X94451843Y-122192235D01*
X94442816Y-122237619D01*
X94430625Y-122219375D01*
X93939418Y-121891161D01*
X93506256Y-121805000D01*
X93213744Y-121805000D01*
X92780582Y-121891161D01*
X92289375Y-122219375D01*
X91961161Y-122710582D01*
X91845908Y-123290000D01*
X83927339Y-123290000D01*
X83781358Y-123129817D01*
X83256892Y-122883514D01*
X83027000Y-123004181D01*
X82773000Y-123004181D01*
X82543108Y-122883514D01*
X82018642Y-123129817D01*
X81628355Y-123558076D01*
X81458524Y-123968110D01*
X79127000Y-123968110D01*
X79127000Y-121277509D01*
X79195752Y-120931870D01*
X79384455Y-120649455D01*
X79666870Y-120460752D01*
X80012509Y-120392000D01*
X148187491Y-120392000D01*
X148533130Y-120460752D01*
G04 #@! TD*
M02*
