M48
;DRILL file {KiCad 5.0.1-33cea8e~68~ubuntu16.04.1} date Sat 13 Apr 2019 16:09:13 EDT
;FORMAT={3:3/ absolute / metric / suppress leading zeros}
FMAT,2
METRIC,TZ
T1C0.550
T2C1.000
T3C1.801
%
G90
G05
M71
T1
X91650Y-125815
X107900Y-125815
X124150Y-125815
X140400Y-125815
T2
X109540Y-123290
X112080Y-123290
X125705Y-123290
X128245Y-123290
X93360Y-123290
X95900Y-123290
X141900Y-123290
X144440Y-123290
X82900Y-124325
X82900Y-126865
T3
X74638Y-106265
X78600Y-106265
X119218Y-93265
X123180Y-93265
X86858Y-93265
X90820Y-93265
X103038Y-93265
X107000Y-93265
X135398Y-93265
X139360Y-93265
T0
M30
