M48
;DRILL file {KiCad 5.0.1-33cea8e~68~ubuntu16.04.1} date Sun 14 Apr 2019 12:12:53 EDT
;FORMAT={3:3/ absolute / metric / suppress leading zeros}
FMAT,2
METRIC,TZ
T1C0.500
T2C0.550
T3C1.000
T4C1.801
T5C3.200
%
G90
G05
M71
T1
X151250Y-128065
X151953Y-126368
X151953Y-129762
X153650Y-125665
X153650Y-130465
X155347Y-126368
X155347Y-129762
X156050Y-128065
T2
X91650Y-125815
X107900Y-125815
X124150Y-125815
X140400Y-125815
T3
X109540Y-123290
X112080Y-123290
X141900Y-123290
X144440Y-123290
X93360Y-123290
X95900Y-123290
X82900Y-124325
X82900Y-126865
X125705Y-123290
X128245Y-123290
T4
X103038Y-93265
X107000Y-93265
X74638Y-106265
X78600Y-106265
X86858Y-93265
X90820Y-93265
X135398Y-93265
X139360Y-93265
X119218Y-93265
X123180Y-93265
T5
X153650Y-128065
T0
M30
